<svg version="1.1" id="Layer_1" xmlns="http://www.w3.org/2000/svg" xmlns:xlink="http://www.w3.org/1999/xlink" x="0px" y="0px"
	 width="100%" viewBox="0 0 1937 1264" enable-background="new 0 0 1937 1264" xml:space="preserve">
<path fill="#370D17" opacity="1.000000" stroke="none" 
	d="
M2.000000,1.000000 
	C646.704285,1.000000 1291.408569,1.000000 1936.556396,1.450905 
	C1937.000000,420.382050 1937.000122,838.862305 1936.996948,1257.342529 
	C1936.996948,1259.508301 1936.950073,1261.674194 1936.490234,1263.912109 
	C1935.388916,1263.989502 1934.722290,1263.999390 1934.055664,1263.999390 
	C1291.582275,1264.000000 649.108887,1264.000122 6.635484,1263.995239 
	C5.137605,1263.995239 3.639727,1263.923462 2.082416,1263.449707 
	C2.015273,1261.348389 2.000809,1259.682373 2.000806,1258.016479 
	C1.999875,839.010986 1.999951,420.005493 2.000000,1.000000 
M655.766357,859.670288 
	C640.967102,821.408752 626.113647,783.167908 611.463013,744.849548 
	C610.174683,741.479736 608.641418,740.384094 605.074951,740.402832 
	C576.577209,740.551880 548.078369,740.481445 519.579834,740.494995 
	C517.981506,740.495728 516.383301,740.644592 514.752197,740.726135 
	C514.752197,828.141541 514.752197,915.063843 514.752197,1002.250244 
	C531.599548,1002.250244 548.180237,1002.250244 565.335388,1002.250244 
	C565.335388,922.247375 565.335388,842.468079 565.335388,762.688843 
	C566.791382,764.068909 567.461914,765.540649 568.044495,767.046448 
	C597.768616,843.875122 627.513428,920.695801 657.120056,997.569702 
	C658.612610,1001.445190 660.556396,1002.647339 664.677185,1002.617981 
	C692.674316,1002.418335 720.673523,1002.513672 748.672058,1002.513733 
	C750.453918,1002.513733 752.235718,1002.513733 754.157471,1002.513733 
	C754.157471,914.913086 754.157471,827.873352 754.157471,740.837402 
	C737.233337,740.837402 720.671265,740.837402 703.700928,740.837402 
	C703.700928,821.206787 703.700928,901.225891 703.700928,981.245056 
	C703.372681,981.318909 703.044495,981.392761 702.716248,981.466614 
	C687.148193,941.112549 671.580139,900.758423 655.766357,859.670288 
M1319.817871,886.832764 
	C1322.696045,919.215881 1334.269897,947.970215 1356.861816,971.557007 
	C1382.977417,998.822754 1415.088013,1011.651428 1452.860352,1006.742371 
	C1488.679932,1002.087158 1513.726562,981.928406 1529.192627,949.538940 
	C1529.897705,948.062134 1530.696045,946.629883 1531.450928,945.176880 
	C1531.719116,945.288147 1531.987427,945.399475 1532.255737,945.510742 
	C1532.255737,964.310364 1532.255737,983.110046 1532.255737,1002.208496 
	C1545.261108,1002.208496 1558.010010,1002.208496 1570.947266,1002.208496 
	C1570.947266,954.773560 1570.947266,907.527100 1570.947266,860.054810 
	C1517.810303,860.054810 1464.897217,860.054810 1411.838867,860.054810 
	C1411.838867,872.119202 1411.838867,884.003113 1411.838867,896.365356 
	C1449.428955,896.365356 1486.671265,896.365356 1523.870728,896.365356 
	C1525.818237,921.400391 1510.252930,947.736328 1487.182861,958.984863 
	C1452.027344,976.126099 1407.202148,963.628357 1386.069580,929.016235 
	C1363.337646,891.784241 1363.174316,852.832092 1385.334473,815.448730 
	C1409.375122,774.893066 1466.139160,765.316650 1501.984863,794.239258 
	C1512.810425,802.974121 1519.748657,814.217102 1522.548584,827.804199 
	C1538.901733,827.804199 1554.853760,827.804199 1571.099487,827.804199 
	C1570.965576,825.976257 1570.973145,824.343445 1570.710449,822.755432 
	C1566.348877,796.394653 1553.460083,775.175903 1532.040405,759.229126 
	C1491.184082,728.811951 1426.249878,726.618530 1381.194214,755.402466 
	C1333.648071,785.777344 1316.200928,831.103577 1319.817871,886.832764 
M1064.476440,904.499573 
	C1064.476440,937.076050 1064.476440,969.652466 1064.476440,1002.133789 
	C1081.811401,1002.133789 1098.363281,1002.133789 1115.323486,1002.133789 
	C1115.323486,969.154480 1115.323486,936.554749 1115.323486,904.005920 
	C1116.202515,903.789062 1116.679077,903.568848 1117.156006,903.568359 
	C1139.816528,903.545044 1162.482178,903.240784 1185.135864,903.630432 
	C1202.846436,903.935059 1215.080933,912.900085 1220.893066,929.643799 
	C1223.600098,937.442688 1225.365967,945.621887 1226.940796,953.748352 
	C1229.816772,968.589172 1232.286377,983.510010 1234.799805,998.418640 
	C1235.347412,1001.666687 1236.837158,1002.631775 1240.124512,1002.597046 
	C1256.618408,1002.422668 1273.115234,1002.521973 1289.610962,1002.505737 
	C1290.697754,1002.504700 1291.784424,1002.342041 1293.118164,1002.234680 
	C1290.953735,996.940796 1288.523926,992.193481 1287.044434,987.166443 
	C1281.513550,968.373230 1276.624390,949.386597 1270.862793,930.666992 
	C1265.293091,912.571106 1257.442505,896.041504 1235.027222,891.598450 
	C1237.665894,890.771423 1239.078247,890.340759 1240.483032,889.886597 
	C1260.718994,883.344238 1274.416626,870.200317 1280.964600,849.820618 
	C1285.317749,836.272400 1286.031250,822.326538 1284.801392,808.329590 
	C1282.556885,782.785095 1271.488770,762.527893 1248.051025,750.402039 
	C1233.860229,743.060181 1218.471924,740.531738 1202.655396,740.506775 
	C1158.333496,740.436768 1114.011475,740.481689 1069.689453,740.495178 
	C1068.082153,740.495667 1066.474731,740.641724 1064.476562,740.738953 
	C1064.476562,795.259827 1064.476562,849.379700 1064.476440,904.499573 
M463.842621,999.109436 
	C463.842621,985.175415 463.842621,971.241455 463.842621,956.805298 
	C413.548615,956.805298 363.840546,956.805298 314.368744,956.805298 
	C314.368744,934.563354 314.368744,912.832947 314.368744,890.768921 
	C360.984283,890.768921 407.236359,890.768921 453.592773,890.768921 
	C453.592773,876.514099 453.592773,862.600891 453.592773,848.117249 
	C406.988892,848.117249 360.631042,848.117249 314.263428,848.117249 
	C314.263428,827.135803 314.263428,806.727539 314.263428,785.800720 
	C364.220917,785.800720 413.921936,785.800720 463.597900,785.800720 
	C463.597900,770.519531 463.597900,755.760193 463.597900,740.930481 
	C396.686432,740.930481 330.020874,740.930481 263.452209,740.930481 
	C263.452209,828.271118 263.452209,915.167236 263.452209,1002.301270 
	C265.039398,1002.381042 266.345703,1002.503845 267.651978,1002.504089 
	C331.465546,1002.513977 395.279144,1002.514038 459.092712,1002.507996 
	C460.255585,1002.507935 461.526855,1002.688538 462.541687,1002.277039 
	C463.174652,1002.020386 463.420471,1000.808838 463.842621,999.109436 
M953.500000,956.994812 
	C923.727661,956.994812 893.955322,956.994812 864.114685,956.994812 
	C864.114685,934.774170 864.114685,913.053101 864.114685,890.854614 
	C910.768677,890.854614 957.152344,890.854614 1003.570496,890.854614 
	C1003.570496,876.461121 1003.570496,862.548401 1003.570496,848.112976 
	C956.923340,848.112976 910.546326,848.112976 864.086426,848.112976 
	C864.086426,827.184509 864.086426,806.782593 864.086426,785.908447 
	C914.046875,785.908447 963.765442,785.908447 1013.662231,785.908447 
	C1013.662231,770.663147 1013.662231,755.890869 1013.662231,740.827393 
	C946.822632,740.827393 880.116150,740.827393 813.358765,740.827393 
	C813.358765,828.092957 813.358765,915.017944 813.358765,1002.123474 
	C880.248352,1002.123474 946.933350,1002.123474 1013.598877,1002.123474 
	C1013.598877,986.961121 1013.598877,972.192017 1013.598877,956.994812 
	C993.737793,956.994812 974.118896,956.994812 953.500000,956.994812 
M497.499695,641.517639 
	C505.578156,641.517639 513.656616,641.517639 521.953552,641.517639 
	C521.745605,640.406372 521.713745,639.927307 521.565430,639.487366 
	C492.757050,554.017883 463.920197,468.557983 435.207825,383.056274 
	C434.195923,380.043030 432.734253,379.425751 429.878296,379.435883 
	C403.714294,379.528656 377.549561,379.552094 351.386017,379.410767 
	C348.105469,379.393036 346.822601,380.517151 345.862000,383.543030 
	C342.344727,394.622498 338.519806,405.604492 334.792633,416.617096 
	C310.189392,489.311737 285.581543,562.004761 260.974884,634.698303 
	C260.256836,636.819580 259.535614,638.939880 258.663330,641.510132 
	C275.252472,641.510132 291.071167,641.376953 306.884369,641.612610 
	C310.415009,641.665222 311.817657,640.445190 312.822784,637.288940 
	C318.769897,618.614136 324.991608,600.026184 330.845764,581.322937 
	C331.886932,577.996521 333.279236,577.029114 336.684753,577.083008 
	C350.180145,577.296631 363.680908,577.170288 377.179688,577.170227 
	C401.003632,577.170105 424.827576,577.170166 448.830109,577.170166 
	C449.327118,578.537964 449.813080,579.762268 450.219940,581.012207 
	C456.235626,599.493896 462.332733,617.950012 468.170593,636.487732 
	C469.332886,640.178467 470.727203,641.922974 475.009888,641.643738 
	C482.145569,641.178589 489.333649,641.517334 497.499695,641.517639 
M1676.001465,947.500000 
	C1676.001465,878.611816 1676.001465,809.723633 1676.001465,740.785278 
	C1658.983643,740.785278 1642.568970,740.785278 1626.158203,740.785278 
	C1626.158203,828.103760 1626.158203,915.129333 1626.158203,1002.226440 
	C1642.910767,1002.226440 1659.332886,1002.226440 1676.001465,1002.226440 
	C1676.001465,984.129700 1676.001465,966.314880 1676.001465,947.500000 
M442.432709,318.054169 
	C442.461334,317.055176 442.514496,316.056213 442.515015,315.057220 
	C442.530609,285.862640 419.628326,262.780792 390.357819,262.485535 
	C361.447571,262.193970 337.754974,285.492645 337.500122,314.464447 
	C337.263275,341.391846 359.435242,365.480103 385.835571,366.977386 
	C415.450928,368.657074 439.716919,348.004730 442.432709,318.054169 
z"/>
<path fill="#CDC3C4" opacity="1.000000" stroke="none" 
	d="
M2.141848,1263.885254 
	C3.639727,1263.923462 5.137605,1263.995239 6.635484,1263.995239 
	C649.108887,1264.000122 1291.582275,1264.000000 1934.055664,1263.999390 
	C1934.722290,1263.999390 1935.388916,1263.989502 1936.756958,1263.966675 
	C1937.638794,1263.965942 1937.819336,1263.983032 1938.000000,1264.000000 
	C1937.833252,1264.333252 1937.683960,1264.943848 1937.497070,1264.955444 
	C1936.169067,1265.038818 1934.833374,1265.000000 1933.500000,1265.000000 
	C1289.333374,1265.000000 645.166687,1265.000000 1.285612,1264.472778 
	C1.761432,1263.925415 1.951640,1263.905396 2.141848,1263.885254 
z"/>
<path fill="#9B868B" opacity="1.000000" stroke="none" 
	d="
M2.082416,1263.449707 
	C1.951640,1263.905396 1.761432,1263.925415 1.285612,1263.972778 
	C1.000000,843.000000 1.000000,422.000000 1.500000,1.000000 
	C1.999951,420.005493 1.999875,839.010986 2.000806,1258.016479 
	C2.000809,1259.682373 2.015273,1261.348389 2.082416,1263.449707 
z"/>
<path fill="#694A50" opacity="1.000000" stroke="none" 
	d="
M1938.000000,1263.549072 
	C1937.819336,1263.983032 1937.638794,1263.965942 1937.191650,1263.894531 
	C1936.950073,1261.674194 1936.996948,1259.508301 1936.996948,1257.342529 
	C1937.000122,838.862305 1937.000000,420.382050 1937.000000,1.450893 
	C1937.333374,1.166483 1937.943726,1.315573 1937.955566,1.502290 
	C1938.039062,2.829979 1938.000000,4.165341 1938.000000,5.498250 
	C1938.000000,424.698212 1938.000000,843.898193 1938.000000,1263.549072 
z"/>
<path fill="#F5F4F4" opacity="1.000000" stroke="none" 
	d="
M655.889221,860.037354 
	C671.580139,900.758423 687.148193,941.112549 702.716248,981.466614 
	C703.044495,981.392761 703.372681,981.318909 703.700928,981.245056 
	C703.700928,901.225891 703.700928,821.206787 703.700928,740.837402 
	C720.671265,740.837402 737.233337,740.837402 754.157471,740.837402 
	C754.157471,827.873352 754.157471,914.913086 754.157471,1002.513733 
	C752.235718,1002.513733 750.453918,1002.513733 748.672058,1002.513733 
	C720.673523,1002.513672 692.674316,1002.418335 664.677185,1002.617981 
	C660.556396,1002.647339 658.612610,1001.445190 657.120056,997.569702 
	C627.513428,920.695801 597.768616,843.875122 568.044495,767.046448 
	C567.461914,765.540649 566.791382,764.068909 565.335388,762.688843 
	C565.335388,842.468079 565.335388,922.247375 565.335388,1002.250244 
	C548.180237,1002.250244 531.599548,1002.250244 514.752197,1002.250244 
	C514.752197,915.063843 514.752197,828.141541 514.752197,740.726135 
	C516.383301,740.644592 517.981506,740.495728 519.579834,740.494995 
	C548.078369,740.481445 576.577209,740.551880 605.074951,740.402832 
	C608.641418,740.384094 610.174683,741.479736 611.463013,744.849548 
	C626.113647,783.167908 640.967102,821.408752 655.889221,860.037354 
z"/>
<path fill="#F6F6F6" opacity="1.000000" stroke="none" 
	d="
M1319.761108,886.376831 
	C1316.200928,831.103577 1333.648071,785.777344 1381.194214,755.402466 
	C1426.249878,726.618530 1491.184082,728.811951 1532.040405,759.229126 
	C1553.460083,775.175903 1566.348877,796.394653 1570.710449,822.755432 
	C1570.973145,824.343445 1570.965576,825.976257 1571.099487,827.804199 
	C1554.853760,827.804199 1538.901733,827.804199 1522.548584,827.804199 
	C1519.748657,814.217102 1512.810425,802.974121 1501.984863,794.239258 
	C1466.139160,765.316650 1409.375122,774.893066 1385.334473,815.448730 
	C1363.174316,852.832092 1363.337646,891.784241 1386.069580,929.016235 
	C1407.202148,963.628357 1452.027344,976.126099 1487.182861,958.984863 
	C1510.252930,947.736328 1525.818237,921.400391 1523.870728,896.365356 
	C1486.671265,896.365356 1449.428955,896.365356 1411.838867,896.365356 
	C1411.838867,884.003113 1411.838867,872.119202 1411.838867,860.054810 
	C1464.897217,860.054810 1517.810303,860.054810 1570.947266,860.054810 
	C1570.947266,907.527100 1570.947266,954.773560 1570.947266,1002.208496 
	C1558.010010,1002.208496 1545.261108,1002.208496 1532.255737,1002.208496 
	C1532.255737,983.110046 1532.255737,964.310364 1532.255737,945.510742 
	C1531.987427,945.399475 1531.719116,945.288147 1531.450928,945.176880 
	C1530.696045,946.629883 1529.897705,948.062134 1529.192627,949.538940 
	C1513.726562,981.928406 1488.679932,1002.087158 1452.860352,1006.742371 
	C1415.088013,1011.651428 1382.977417,998.822754 1356.861816,971.557007 
	C1334.269897,947.970215 1322.696045,919.215881 1319.761108,886.376831 
z"/>
<path fill="#F5F4F4" opacity="1.000000" stroke="none" 
	d="
M1064.476562,903.999512 
	C1064.476562,849.379700 1064.476562,795.259827 1064.476562,740.738953 
	C1066.474731,740.641724 1068.082153,740.495667 1069.689453,740.495178 
	C1114.011475,740.481689 1158.333496,740.436768 1202.655396,740.506775 
	C1218.471924,740.531738 1233.860229,743.060181 1248.051025,750.402039 
	C1271.488770,762.527893 1282.556885,782.785095 1284.801392,808.329590 
	C1286.031250,822.326538 1285.317749,836.272400 1280.964600,849.820618 
	C1274.416626,870.200317 1260.718994,883.344238 1240.483032,889.886597 
	C1239.078247,890.340759 1237.665894,890.771423 1235.027222,891.598450 
	C1257.442505,896.041504 1265.293091,912.571106 1270.862793,930.666992 
	C1276.624390,949.386597 1281.513550,968.373230 1287.044434,987.166443 
	C1288.523926,992.193481 1290.953735,996.940796 1293.118164,1002.234680 
	C1291.784424,1002.342041 1290.697754,1002.504700 1289.610962,1002.505737 
	C1273.115234,1002.521973 1256.618408,1002.422668 1240.124512,1002.597046 
	C1236.837158,1002.631775 1235.347412,1001.666687 1234.799805,998.418640 
	C1232.286377,983.510010 1229.816772,968.589172 1226.940796,953.748352 
	C1225.365967,945.621887 1223.600098,937.442688 1220.893066,929.643799 
	C1215.080933,912.900085 1202.846436,903.935059 1185.135864,903.630432 
	C1162.482178,903.240784 1139.816528,903.545044 1117.156006,903.568359 
	C1116.679077,903.568848 1116.202515,903.789062 1115.323486,904.005920 
	C1115.323486,936.554749 1115.323486,969.154480 1115.323486,1002.133789 
	C1098.363281,1002.133789 1081.811401,1002.133789 1064.476440,1002.133789 
	C1064.476440,969.652466 1064.476440,937.076050 1064.476562,903.999512 
M1127.508545,781.511230 
	C1123.556030,781.511230 1119.603516,781.511230 1115.566650,781.511230 
	C1115.566650,808.771362 1115.566650,835.464539 1115.566650,862.163574 
	C1143.432495,862.163574 1170.923950,862.826416 1198.366821,861.955200 
	C1220.584351,861.249878 1233.160278,847.961670 1234.418457,825.863586 
	C1235.930420,799.308472 1222.108521,782.225647 1196.484497,781.774536 
	C1173.830688,781.375793 1151.166504,781.575562 1127.508545,781.511230 
z"/>
<path fill="#F5F5F5" opacity="1.000000" stroke="none" 
	d="
M463.841309,999.567627 
	C463.420471,1000.808838 463.174652,1002.020386 462.541687,1002.277039 
	C461.526855,1002.688538 460.255585,1002.507935 459.092712,1002.507996 
	C395.279144,1002.514038 331.465546,1002.513977 267.651978,1002.504089 
	C266.345703,1002.503845 265.039398,1002.381042 263.452209,1002.301270 
	C263.452209,915.167236 263.452209,828.271118 263.452209,740.930481 
	C330.020874,740.930481 396.686432,740.930481 463.597900,740.930481 
	C463.597900,755.760193 463.597900,770.519531 463.597900,785.800720 
	C413.921936,785.800720 364.220917,785.800720 314.263428,785.800720 
	C314.263428,806.727539 314.263428,827.135803 314.263428,848.117249 
	C360.631042,848.117249 406.988892,848.117249 453.592773,848.117249 
	C453.592773,862.600891 453.592773,876.514099 453.592773,890.768921 
	C407.236359,890.768921 360.984283,890.768921 314.368744,890.768921 
	C314.368744,912.832947 314.368744,934.563354 314.368744,956.805298 
	C363.840546,956.805298 413.548615,956.805298 463.842621,956.805298 
	C463.842621,971.241455 463.842621,985.175415 463.841309,999.567627 
z"/>
<path fill="#F5F4F5" opacity="1.000000" stroke="none" 
	d="
M954.000000,956.994812 
	C974.118896,956.994812 993.737793,956.994812 1013.598877,956.994812 
	C1013.598877,972.192017 1013.598877,986.961121 1013.598877,1002.123474 
	C946.933350,1002.123474 880.248352,1002.123474 813.358765,1002.123474 
	C813.358765,915.017944 813.358765,828.092957 813.358765,740.827393 
	C880.116150,740.827393 946.822632,740.827393 1013.662231,740.827393 
	C1013.662231,755.890869 1013.662231,770.663147 1013.662231,785.908447 
	C963.765442,785.908447 914.046875,785.908447 864.086426,785.908447 
	C864.086426,806.782593 864.086426,827.184509 864.086426,848.112976 
	C910.546326,848.112976 956.923340,848.112976 1003.570496,848.112976 
	C1003.570496,862.548401 1003.570496,876.461121 1003.570496,890.854614 
	C957.152344,890.854614 910.768677,890.854614 864.114685,890.854614 
	C864.114685,913.053101 864.114685,934.774170 864.114685,956.994812 
	C893.955322,956.994812 923.727661,956.994812 954.000000,956.994812 
z"/>
<path fill="#F6F5F5" opacity="1.000000" stroke="none" 
	d="
M496.999695,641.517578 
	C489.333649,641.517334 482.145569,641.178589 475.009888,641.643738 
	C470.727203,641.922974 469.332886,640.178467 468.170593,636.487732 
	C462.332733,617.950012 456.235626,599.493896 450.219940,581.012207 
	C449.813080,579.762268 449.327118,578.537964 448.830109,577.170166 
	C424.827576,577.170166 401.003632,577.170105 377.179688,577.170227 
	C363.680908,577.170288 350.180145,577.296631 336.684753,577.083008 
	C333.279236,577.029114 331.886932,577.996521 330.845764,581.322937 
	C324.991608,600.026184 318.769897,618.614136 312.822784,637.288940 
	C311.817657,640.445190 310.415009,641.665222 306.884369,641.612610 
	C291.071167,641.376953 275.252472,641.510132 258.663330,641.510132 
	C259.535614,638.939880 260.256836,636.819580 260.974884,634.698303 
	C285.581543,562.004761 310.189392,489.311737 334.792633,416.617096 
	C338.519806,405.604492 342.344727,394.622498 345.862000,383.543030 
	C346.822601,380.517151 348.105469,379.393036 351.386017,379.410767 
	C377.549561,379.552094 403.714294,379.528656 429.878296,379.435883 
	C432.734253,379.425751 434.195923,380.043030 435.207825,383.056274 
	C463.920197,468.557983 492.757050,554.017883 521.565430,639.487366 
	C521.713745,639.927307 521.745605,640.406372 521.953552,641.517639 
	C513.656616,641.517639 505.578156,641.517639 496.999695,641.517578 
M347.966339,528.498474 
	C347.754211,529.543518 347.542114,530.588562 347.356384,531.503479 
	C376.376251,531.503479 405.086456,531.503479 434.293335,531.503479 
	C419.836243,486.424530 405.522430,441.792419 390.810669,395.919434 
	C376.282318,440.824402 362.225952,484.270630 347.966339,528.498474 
z"/>
<path fill="#F6F6F6" opacity="1.000000" stroke="none" 
	d="
M1676.001465,948.000000 
	C1676.001465,966.314880 1676.001465,984.129700 1676.001465,1002.226440 
	C1659.332886,1002.226440 1642.910767,1002.226440 1626.158203,1002.226440 
	C1626.158203,915.129333 1626.158203,828.103760 1626.158203,740.785278 
	C1642.568970,740.785278 1658.983643,740.785278 1676.001465,740.785278 
	C1676.001465,809.723633 1676.001465,878.611816 1676.001465,948.000000 
z"/>
<path fill="#F5F5F5" opacity="1.000000" stroke="none" 
	d="
M442.362854,318.490906 
	C439.716919,348.004730 415.450928,368.657074 385.835571,366.977386 
	C359.435242,365.480103 337.263275,341.391846 337.500122,314.464447 
	C337.754974,285.492645 361.447571,262.193970 390.357819,262.485535 
	C419.628326,262.780792 442.530609,285.862640 442.515015,315.057220 
	C442.514496,316.056213 442.461334,317.055176 442.362854,318.490906 
M370.467926,322.714478 
	C376.165955,334.110718 387.177826,338.638641 398.249756,334.138031 
	C408.220673,330.084900 413.498566,318.928467 410.301941,308.661835 
	C406.733917,297.202271 395.067902,290.894531 383.862274,294.366089 
	C372.349487,297.932800 366.628693,309.459656 370.467926,322.714478 
z"/>
<path fill="#380E18" opacity="1.000000" stroke="none" 
	d="
M1128.007690,781.511230 
	C1151.166504,781.575562 1173.830688,781.375793 1196.484497,781.774536 
	C1222.108521,782.225647 1235.930420,799.308472 1234.418457,825.863586 
	C1233.160278,847.961670 1220.584351,861.249878 1198.366821,861.955200 
	C1170.923950,862.826416 1143.432495,862.163574 1115.566650,862.163574 
	C1115.566650,835.464539 1115.566650,808.771362 1115.566650,781.511230 
	C1119.603516,781.511230 1123.556030,781.511230 1128.007690,781.511230 
z"/>
<path fill="#390F19" opacity="1.000000" stroke="none" 
	d="
M348.067932,528.107666 
	C362.225952,484.270630 376.282318,440.824402 390.810669,395.919434 
	C405.522430,441.792419 419.836243,486.424530 434.293335,531.503479 
	C405.086456,531.503479 376.376251,531.503479 347.356384,531.503479 
	C347.542114,530.588562 347.754211,529.543518 348.067932,528.107666 
z"/>
<path fill="#391019" opacity="1.000000" stroke="none" 
	d="
M370.311646,322.349365 
	C366.628693,309.459656 372.349487,297.932800 383.862274,294.366089 
	C395.067902,290.894531 406.733917,297.202271 410.301941,308.661835 
	C413.498566,318.928467 408.220673,330.084900 398.249756,334.138031 
	C387.177826,338.638641 376.165955,334.110718 370.311646,322.349365 
z"/>
</svg>